<svg xmlns="http://www.w3.org/2000/svg" xmlns:xlink="http://www.w3.org/1999/xlink" width="500" zoomAndPan="magnify" viewBox="0 0 375 374.999991" height="500" preserveAspectRatio="xMidYMid meet" version="1.0"><defs><g/></defs><g fill="#38bdf8" fill-opacity="0.4"><g transform="translate(218.759784, 190.265438)"><g><path d="M 20.953125 -27.796875 L 20.953125 -24.078125 L 13.5625 -24.078125 L 13.5625 0 L 9 0 L 9 -24.078125 L 1.5625 -24.078125 L 1.5625 -27.796875 Z M 20.953125 -27.796875 "/></g></g></g><g fill="#38bdf8" fill-opacity="0.4"><g transform="translate(241.317541, 190.265438)"><g><path d="M 23.203125 -11.5625 C 23.203125 -10.726562 23.148438 -9.976562 23.046875 -9.3125 L 6.203125 -9.3125 C 6.335938 -7.5625 6.988281 -6.148438 8.15625 -5.078125 C 9.332031 -4.015625 10.773438 -3.484375 12.484375 -3.484375 C 14.929688 -3.484375 16.664062 -4.507812 17.6875 -6.5625 L 22.59375 -6.5625 C 21.925781 -4.53125 20.71875 -2.867188 18.96875 -1.578125 C 17.226562 -0.285156 15.066406 0.359375 12.484375 0.359375 C 10.367188 0.359375 8.476562 -0.113281 6.8125 -1.0625 C 5.144531 -2.007812 3.835938 -3.34375 2.890625 -5.0625 C 1.953125 -6.78125 1.484375 -8.773438 1.484375 -11.046875 C 1.484375 -13.304688 1.941406 -15.296875 2.859375 -17.015625 C 3.773438 -18.734375 5.066406 -20.0625 6.734375 -21 C 8.398438 -21.9375 10.316406 -22.40625 12.484375 -22.40625 C 14.554688 -22.40625 16.40625 -21.953125 18.03125 -21.046875 C 19.664062 -20.140625 20.9375 -18.863281 21.84375 -17.21875 C 22.75 -15.582031 23.203125 -13.695312 23.203125 -11.5625 Z M 18.4375 -13 C 18.414062 -14.675781 17.816406 -16.019531 16.640625 -17.03125 C 15.460938 -18.050781 14.007812 -18.5625 12.28125 -18.5625 C 10.707031 -18.5625 9.359375 -18.0625 8.234375 -17.0625 C 7.117188 -16.0625 6.453125 -14.707031 6.234375 -13 Z M 18.4375 -13 "/></g></g></g><g fill="#38bdf8" fill-opacity="0.4"><g transform="translate(265.995087, 190.265438)"><g><path d="M 1.484375 -11.046875 C 1.484375 -13.304688 1.941406 -15.296875 2.859375 -17.015625 C 3.773438 -18.734375 5.046875 -20.0625 6.671875 -21 C 8.304688 -21.9375 10.175781 -22.40625 12.28125 -22.40625 C 14.945312 -22.40625 17.148438 -21.769531 18.890625 -20.5 C 20.640625 -19.226562 21.820312 -17.421875 22.4375 -15.078125 L 17.515625 -15.078125 C 17.117188 -16.171875 16.476562 -17.023438 15.59375 -17.640625 C 14.71875 -18.253906 13.613281 -18.5625 12.28125 -18.5625 C 10.414062 -18.5625 8.925781 -17.898438 7.8125 -16.578125 C 6.707031 -15.253906 6.15625 -13.410156 6.15625 -11.046875 C 6.15625 -8.671875 6.707031 -6.816406 7.8125 -5.484375 C 8.925781 -4.148438 10.414062 -3.484375 12.28125 -3.484375 C 14.914062 -3.484375 16.660156 -4.640625 17.515625 -6.953125 L 22.4375 -6.953125 C 21.800781 -4.710938 20.601562 -2.929688 18.84375 -1.609375 C 17.082031 -0.296875 14.894531 0.359375 12.28125 0.359375 C 10.175781 0.359375 8.304688 -0.113281 6.671875 -1.0625 C 5.046875 -2.007812 3.773438 -3.34375 2.859375 -5.0625 C 1.941406 -6.78125 1.484375 -8.773438 1.484375 -11.046875 Z M 1.484375 -11.046875 "/></g></g></g><g fill="#38bdf8" fill-opacity="0.4"><g transform="translate(289.992705, 190.265438)"><g><path d="M 14.40625 -22.40625 C 16.082031 -22.40625 17.578125 -22.039062 18.890625 -21.3125 C 20.210938 -20.59375 21.253906 -19.523438 22.015625 -18.109375 C 22.773438 -16.703125 23.15625 -15 23.15625 -13 L 23.15625 0 L 18.640625 0 L 18.640625 -12.3125 C 18.640625 -14.289062 18.144531 -15.804688 17.15625 -16.859375 C 16.175781 -17.910156 14.832031 -18.4375 13.125 -18.4375 C 11.414062 -18.4375 10.0625 -17.910156 9.0625 -16.859375 C 8.0625 -15.804688 7.5625 -14.289062 7.5625 -12.3125 L 7.5625 0 L 3 0 L 3 -29.59375 L 7.5625 -29.59375 L 7.5625 -19.484375 C 8.332031 -20.410156 9.3125 -21.128906 10.5 -21.640625 C 11.6875 -22.148438 12.988281 -22.40625 14.40625 -22.40625 Z M 14.40625 -22.40625 "/></g></g></g><g fill="#38bdf8" fill-opacity="1"><g transform="translate(217.875898, 189.381549)"><g><path d="M 20.953125 -27.796875 L 20.953125 -24.078125 L 13.5625 -24.078125 L 13.5625 0 L 9 0 L 9 -24.078125 L 1.5625 -24.078125 L 1.5625 -27.796875 Z M 20.953125 -27.796875 "/></g></g></g><g fill="#38bdf8" fill-opacity="1"><g transform="translate(240.433655, 189.381549)"><g><path d="M 23.203125 -11.5625 C 23.203125 -10.726562 23.148438 -9.976562 23.046875 -9.3125 L 6.203125 -9.3125 C 6.335938 -7.5625 6.988281 -6.148438 8.15625 -5.078125 C 9.332031 -4.015625 10.773438 -3.484375 12.484375 -3.484375 C 14.929688 -3.484375 16.664062 -4.507812 17.6875 -6.5625 L 22.59375 -6.5625 C 21.925781 -4.53125 20.71875 -2.867188 18.96875 -1.578125 C 17.226562 -0.285156 15.066406 0.359375 12.484375 0.359375 C 10.367188 0.359375 8.476562 -0.113281 6.8125 -1.0625 C 5.144531 -2.007812 3.835938 -3.34375 2.890625 -5.0625 C 1.953125 -6.78125 1.484375 -8.773438 1.484375 -11.046875 C 1.484375 -13.304688 1.941406 -15.296875 2.859375 -17.015625 C 3.773438 -18.734375 5.066406 -20.0625 6.734375 -21 C 8.398438 -21.9375 10.316406 -22.40625 12.484375 -22.40625 C 14.554688 -22.40625 16.40625 -21.953125 18.03125 -21.046875 C 19.664062 -20.140625 20.9375 -18.863281 21.84375 -17.21875 C 22.75 -15.582031 23.203125 -13.695312 23.203125 -11.5625 Z M 18.4375 -13 C 18.414062 -14.675781 17.816406 -16.019531 16.640625 -17.03125 C 15.460938 -18.050781 14.007812 -18.5625 12.28125 -18.5625 C 10.707031 -18.5625 9.359375 -18.0625 8.234375 -17.0625 C 7.117188 -16.0625 6.453125 -14.707031 6.234375 -13 Z M 18.4375 -13 "/></g></g></g><g fill="#38bdf8" fill-opacity="1"><g transform="translate(265.111201, 189.381549)"><g><path d="M 1.484375 -11.046875 C 1.484375 -13.304688 1.941406 -15.296875 2.859375 -17.015625 C 3.773438 -18.734375 5.046875 -20.0625 6.671875 -21 C 8.304688 -21.9375 10.175781 -22.40625 12.28125 -22.40625 C 14.945312 -22.40625 17.148438 -21.769531 18.890625 -20.5 C 20.640625 -19.226562 21.820312 -17.421875 22.4375 -15.078125 L 17.515625 -15.078125 C 17.117188 -16.171875 16.476562 -17.023438 15.59375 -17.640625 C 14.71875 -18.253906 13.613281 -18.5625 12.28125 -18.5625 C 10.414062 -18.5625 8.925781 -17.898438 7.8125 -16.578125 C 6.707031 -15.253906 6.15625 -13.410156 6.15625 -11.046875 C 6.15625 -8.671875 6.707031 -6.816406 7.8125 -5.484375 C 8.925781 -4.148438 10.414062 -3.484375 12.28125 -3.484375 C 14.914062 -3.484375 16.660156 -4.640625 17.515625 -6.953125 L 22.4375 -6.953125 C 21.800781 -4.710938 20.601562 -2.929688 18.84375 -1.609375 C 17.082031 -0.296875 14.894531 0.359375 12.28125 0.359375 C 10.175781 0.359375 8.304688 -0.113281 6.671875 -1.0625 C 5.046875 -2.007812 3.773438 -3.34375 2.859375 -5.0625 C 1.941406 -6.78125 1.484375 -8.773438 1.484375 -11.046875 Z M 1.484375 -11.046875 "/></g></g></g><g fill="#38bdf8" fill-opacity="1"><g transform="translate(289.108819, 189.381549)"><g><path d="M 14.40625 -22.40625 C 16.082031 -22.40625 17.578125 -22.039062 18.890625 -21.3125 C 20.210938 -20.59375 21.253906 -19.523438 22.015625 -18.109375 C 22.773438 -16.703125 23.15625 -15 23.15625 -13 L 23.15625 0 L 18.640625 0 L 18.640625 -12.3125 C 18.640625 -14.289062 18.144531 -15.804688 17.15625 -16.859375 C 16.175781 -17.910156 14.832031 -18.4375 13.125 -18.4375 C 11.414062 -18.4375 10.0625 -17.910156 9.0625 -16.859375 C 8.0625 -15.804688 7.5625 -14.289062 7.5625 -12.3125 L 7.5625 0 L 3 0 L 3 -29.59375 L 7.5625 -29.59375 L 7.5625 -19.484375 C 8.332031 -20.410156 9.3125 -21.128906 10.5 -21.640625 C 11.6875 -22.148438 12.988281 -22.40625 14.40625 -22.40625 Z M 14.40625 -22.40625 "/></g></g></g><g fill="#ffffff" fill-opacity="0.4"><g transform="translate(25.822255, 190.265438)"><g><path d="M 1.484375 -13.953125 C 1.484375 -16.679688 2.113281 -19.125 3.375 -21.28125 C 4.644531 -23.4375 6.363281 -25.117188 8.53125 -26.328125 C 10.707031 -27.546875 13.09375 -28.15625 15.6875 -28.15625 C 18.644531 -28.15625 21.273438 -27.425781 23.578125 -25.96875 C 25.890625 -24.519531 27.5625 -22.460938 28.59375 -19.796875 L 23.125 -19.796875 C 22.40625 -21.265625 21.40625 -22.359375 20.125 -23.078125 C 18.84375 -23.796875 17.363281 -24.15625 15.6875 -24.15625 C 13.84375 -24.15625 12.195312 -23.742188 10.75 -22.921875 C 9.3125 -22.097656 8.1875 -20.910156 7.375 -19.359375 C 6.5625 -17.816406 6.15625 -16.015625 6.15625 -13.953125 C 6.15625 -11.898438 6.5625 -10.097656 7.375 -8.546875 C 8.1875 -7.003906 9.3125 -5.8125 10.75 -4.96875 C 12.195312 -4.132812 13.84375 -3.71875 15.6875 -3.71875 C 17.363281 -3.71875 18.84375 -4.078125 20.125 -4.796875 C 21.40625 -5.515625 22.40625 -6.609375 23.125 -8.078125 L 28.59375 -8.078125 C 27.5625 -5.410156 25.890625 -3.359375 23.578125 -1.921875 C 21.273438 -0.484375 18.644531 0.234375 15.6875 0.234375 C 13.070312 0.234375 10.679688 -0.367188 8.515625 -1.578125 C 6.359375 -2.796875 4.644531 -4.484375 3.375 -6.640625 C 2.113281 -8.796875 1.484375 -11.234375 1.484375 -13.953125 Z M 1.484375 -13.953125 "/></g></g></g><g fill="#ffffff" fill-opacity="0.4"><g transform="translate(56.739188, 190.265438)"><g><path d="M 12.5625 0.359375 C 10.476562 0.359375 8.597656 -0.113281 6.921875 -1.0625 C 5.242188 -2.007812 3.921875 -3.34375 2.953125 -5.0625 C 1.992188 -6.78125 1.515625 -8.773438 1.515625 -11.046875 C 1.515625 -13.285156 2.007812 -15.269531 3 -17 C 3.988281 -18.726562 5.332031 -20.0625 7.03125 -21 C 8.738281 -21.9375 10.648438 -22.40625 12.765625 -22.40625 C 14.867188 -22.40625 16.773438 -21.9375 18.484375 -21 C 20.191406 -20.0625 21.535156 -18.726562 22.515625 -17 C 23.503906 -15.269531 24 -13.285156 24 -11.046875 C 24 -8.804688 23.488281 -6.816406 22.46875 -5.078125 C 21.457031 -3.347656 20.078125 -2.007812 18.328125 -1.0625 C 16.585938 -0.113281 14.664062 0.359375 12.5625 0.359375 Z M 12.5625 -3.59375 C 13.726562 -3.59375 14.828125 -3.875 15.859375 -4.4375 C 16.890625 -5 17.722656 -5.835938 18.359375 -6.953125 C 18.992188 -8.078125 19.3125 -9.441406 19.3125 -11.046875 C 19.3125 -12.640625 19.003906 -13.988281 18.390625 -15.09375 C 17.785156 -16.207031 16.972656 -17.039062 15.953125 -17.59375 C 14.941406 -18.15625 13.851562 -18.4375 12.6875 -18.4375 C 11.507812 -18.4375 10.421875 -18.15625 9.421875 -17.59375 C 8.421875 -17.039062 7.625 -16.207031 7.03125 -15.09375 C 6.445312 -13.988281 6.15625 -12.640625 6.15625 -11.046875 C 6.15625 -8.671875 6.757812 -6.832031 7.96875 -5.53125 C 9.1875 -4.238281 10.71875 -3.59375 12.5625 -3.59375 Z M 12.5625 -3.59375 "/></g></g></g><g fill="#ffffff" fill-opacity="0.4"><g transform="translate(82.25665, 190.265438)"><g><path d="M 1.484375 -11.125 C 1.484375 -13.332031 1.941406 -15.289062 2.859375 -17 C 3.773438 -18.707031 5.023438 -20.035156 6.609375 -20.984375 C 8.203125 -21.929688 9.972656 -22.40625 11.921875 -22.40625 C 13.359375 -22.40625 14.773438 -22.085938 16.171875 -21.453125 C 17.578125 -20.828125 18.691406 -19.992188 19.515625 -18.953125 L 19.515625 -29.59375 L 24.125 -29.59375 L 24.125 0 L 19.515625 0 L 19.515625 -3.3125 C 18.773438 -2.25 17.742188 -1.367188 16.421875 -0.671875 C 15.097656 0.015625 13.582031 0.359375 11.875 0.359375 C 9.957031 0.359375 8.203125 -0.125 6.609375 -1.09375 C 5.023438 -2.070312 3.773438 -3.429688 2.859375 -5.171875 C 1.941406 -6.921875 1.484375 -8.90625 1.484375 -11.125 Z M 19.515625 -11.046875 C 19.515625 -12.554688 19.203125 -13.875 18.578125 -15 C 17.953125 -16.125 17.128906 -16.976562 16.109375 -17.5625 C 15.097656 -18.144531 14.007812 -18.4375 12.84375 -18.4375 C 11.664062 -18.4375 10.570312 -18.148438 9.5625 -17.578125 C 8.550781 -17.003906 7.726562 -16.164062 7.09375 -15.0625 C 6.46875 -13.957031 6.15625 -12.644531 6.15625 -11.125 C 6.15625 -9.601562 6.46875 -8.269531 7.09375 -7.125 C 7.726562 -5.976562 8.554688 -5.101562 9.578125 -4.5 C 10.609375 -3.894531 11.695312 -3.59375 12.84375 -3.59375 C 14.007812 -3.59375 15.097656 -3.882812 16.109375 -4.46875 C 17.128906 -5.0625 17.953125 -5.925781 18.578125 -7.0625 C 19.203125 -8.195312 19.515625 -9.523438 19.515625 -11.046875 Z M 19.515625 -11.046875 "/></g></g></g><g fill="#ffffff" fill-opacity="0.4"><g transform="translate(109.37395, 190.265438)"><g><path d="M 23.203125 -11.5625 C 23.203125 -10.726562 23.148438 -9.976562 23.046875 -9.3125 L 6.203125 -9.3125 C 6.335938 -7.5625 6.988281 -6.148438 8.15625 -5.078125 C 9.332031 -4.015625 10.773438 -3.484375 12.484375 -3.484375 C 14.929688 -3.484375 16.664062 -4.507812 17.6875 -6.5625 L 22.59375 -6.5625 C 21.925781 -4.53125 20.71875 -2.867188 18.96875 -1.578125 C 17.226562 -0.285156 15.066406 0.359375 12.484375 0.359375 C 10.367188 0.359375 8.476562 -0.113281 6.8125 -1.0625 C 5.144531 -2.007812 3.835938 -3.34375 2.890625 -5.0625 C 1.953125 -6.78125 1.484375 -8.773438 1.484375 -11.046875 C 1.484375 -13.304688 1.941406 -15.296875 2.859375 -17.015625 C 3.773438 -18.734375 5.066406 -20.0625 6.734375 -21 C 8.398438 -21.9375 10.316406 -22.40625 12.484375 -22.40625 C 14.554688 -22.40625 16.40625 -21.953125 18.03125 -21.046875 C 19.664062 -20.140625 20.9375 -18.863281 21.84375 -17.21875 C 22.75 -15.582031 23.203125 -13.695312 23.203125 -11.5625 Z M 18.4375 -13 C 18.414062 -14.675781 17.816406 -16.019531 16.640625 -17.03125 C 15.460938 -18.050781 14.007812 -18.5625 12.28125 -18.5625 C 10.707031 -18.5625 9.359375 -18.0625 8.234375 -17.0625 C 7.117188 -16.0625 6.453125 -14.707031 6.234375 -13 Z M 18.4375 -13 "/></g></g></g><g fill="#ffffff" fill-opacity="0.4"><g transform="translate(134.051496, 190.265438)"><g><path d="M 12.15625 0.28125 C 10.289062 0.28125 8.609375 -0.046875 7.109375 -0.703125 C 5.617188 -1.359375 4.445312 -2.285156 3.59375 -3.484375 C 2.738281 -4.679688 2.3125 -6.082031 2.3125 -7.6875 L 7.203125 -7.6875 C 7.304688 -6.476562 7.773438 -5.488281 8.609375 -4.71875 C 9.453125 -3.945312 10.632812 -3.5625 12.15625 -3.5625 C 13.726562 -3.5625 14.953125 -3.941406 15.828125 -4.703125 C 16.710938 -5.460938 17.15625 -6.441406 17.15625 -7.640625 C 17.15625 -8.578125 16.878906 -9.335938 16.328125 -9.921875 C 15.785156 -10.503906 15.109375 -10.957031 14.296875 -11.28125 C 13.484375 -11.601562 12.359375 -11.945312 10.921875 -12.3125 C 9.109375 -12.800781 7.632812 -13.289062 6.5 -13.78125 C 5.363281 -14.269531 4.394531 -15.035156 3.59375 -16.078125 C 2.800781 -17.117188 2.40625 -18.503906 2.40625 -20.234375 C 2.40625 -21.835938 2.800781 -23.238281 3.59375 -24.4375 C 4.394531 -25.632812 5.515625 -26.550781 6.953125 -27.1875 C 8.398438 -27.832031 10.066406 -28.15625 11.953125 -28.15625 C 14.648438 -28.15625 16.859375 -27.484375 18.578125 -26.140625 C 20.296875 -24.796875 21.25 -22.945312 21.4375 -20.59375 L 16.40625 -20.59375 C 16.320312 -21.613281 15.835938 -22.484375 14.953125 -23.203125 C 14.078125 -23.921875 12.921875 -24.28125 11.484375 -24.28125 C 10.171875 -24.28125 9.101562 -23.945312 8.28125 -23.28125 C 7.457031 -22.613281 7.046875 -21.65625 7.046875 -20.40625 C 7.046875 -19.550781 7.300781 -18.847656 7.8125 -18.296875 C 8.332031 -17.753906 8.992188 -17.320312 9.796875 -17 C 10.597656 -16.675781 11.691406 -16.328125 13.078125 -15.953125 C 14.921875 -15.453125 16.421875 -14.945312 17.578125 -14.4375 C 18.734375 -13.9375 19.71875 -13.15625 20.53125 -12.09375 C 21.351562 -11.039062 21.765625 -9.632812 21.765625 -7.875 C 21.765625 -6.46875 21.382812 -5.132812 20.625 -3.875 C 19.863281 -2.625 18.753906 -1.617188 17.296875 -0.859375 C 15.847656 -0.0976562 14.132812 0.28125 12.15625 0.28125 Z M 12.15625 0.28125 "/></g></g></g><g fill="#ffffff" fill-opacity="0.4"><g transform="translate(158.209092, 190.265438)"><g><path d="M 12.5625 0.359375 C 10.476562 0.359375 8.597656 -0.113281 6.921875 -1.0625 C 5.242188 -2.007812 3.921875 -3.34375 2.953125 -5.0625 C 1.992188 -6.78125 1.515625 -8.773438 1.515625 -11.046875 C 1.515625 -13.285156 2.007812 -15.269531 3 -17 C 3.988281 -18.726562 5.332031 -20.0625 7.03125 -21 C 8.738281 -21.9375 10.648438 -22.40625 12.765625 -22.40625 C 14.867188 -22.40625 16.773438 -21.9375 18.484375 -21 C 20.191406 -20.0625 21.535156 -18.726562 22.515625 -17 C 23.503906 -15.269531 24 -13.285156 24 -11.046875 C 24 -8.804688 23.488281 -6.816406 22.46875 -5.078125 C 21.457031 -3.347656 20.078125 -2.007812 18.328125 -1.0625 C 16.585938 -0.113281 14.664062 0.359375 12.5625 0.359375 Z M 12.5625 -3.59375 C 13.726562 -3.59375 14.828125 -3.875 15.859375 -4.4375 C 16.890625 -5 17.722656 -5.835938 18.359375 -6.953125 C 18.992188 -8.078125 19.3125 -9.441406 19.3125 -11.046875 C 19.3125 -12.640625 19.003906 -13.988281 18.390625 -15.09375 C 17.785156 -16.207031 16.972656 -17.039062 15.953125 -17.59375 C 14.941406 -18.15625 13.851562 -18.4375 12.6875 -18.4375 C 11.507812 -18.4375 10.421875 -18.15625 9.421875 -17.59375 C 8.421875 -17.039062 7.625 -16.207031 7.03125 -15.09375 C 6.445312 -13.988281 6.15625 -12.640625 6.15625 -11.046875 C 6.15625 -8.671875 6.757812 -6.832031 7.96875 -5.53125 C 9.1875 -4.238281 10.71875 -3.59375 12.5625 -3.59375 Z M 12.5625 -3.59375 "/></g></g></g><g fill="#ffffff" fill-opacity="0.4"><g transform="translate(183.726554, 190.265438)"><g><path d="M 22.953125 -22.046875 L 22.953125 0 L 18.40625 0 L 18.40625 -2.59375 C 17.675781 -1.6875 16.734375 -0.972656 15.578125 -0.453125 C 14.421875 0.0546875 13.1875 0.3125 11.875 0.3125 C 10.144531 0.3125 8.59375 -0.046875 7.21875 -0.765625 C 5.84375 -1.484375 4.757812 -2.546875 3.96875 -3.953125 C 3.1875 -5.367188 2.796875 -7.078125 2.796875 -9.078125 L 2.796875 -22.046875 L 7.3125 -22.046875 L 7.3125 -9.765625 C 7.3125 -7.785156 7.804688 -6.269531 8.796875 -5.21875 C 9.785156 -4.164062 11.132812 -3.640625 12.84375 -3.640625 C 14.550781 -3.640625 15.90625 -4.164062 16.90625 -5.21875 C 17.90625 -6.269531 18.40625 -7.785156 18.40625 -9.765625 L 18.40625 -22.046875 Z M 22.953125 -22.046875 "/></g></g></g><g fill="#ffffff" fill-opacity="0.4"><g transform="translate(209.683972, 190.265438)"><g><path d="M 7.5625 -29.59375 L 7.5625 0 L 3 0 L 3 -29.59375 Z M 7.5625 -29.59375 "/></g></g></g><g fill="#ffffff" fill-opacity="1"><g transform="translate(24.938372, 189.381549)"><g><path d="M 1.484375 -13.953125 C 1.484375 -16.679688 2.113281 -19.125 3.375 -21.28125 C 4.644531 -23.4375 6.363281 -25.117188 8.53125 -26.328125 C 10.707031 -27.546875 13.09375 -28.15625 15.6875 -28.15625 C 18.644531 -28.15625 21.273438 -27.425781 23.578125 -25.96875 C 25.890625 -24.519531 27.5625 -22.460938 28.59375 -19.796875 L 23.125 -19.796875 C 22.40625 -21.265625 21.40625 -22.359375 20.125 -23.078125 C 18.84375 -23.796875 17.363281 -24.15625 15.6875 -24.15625 C 13.84375 -24.15625 12.195312 -23.742188 10.75 -22.921875 C 9.3125 -22.097656 8.1875 -20.910156 7.375 -19.359375 C 6.5625 -17.816406 6.15625 -16.015625 6.15625 -13.953125 C 6.15625 -11.898438 6.5625 -10.097656 7.375 -8.546875 C 8.1875 -7.003906 9.3125 -5.8125 10.75 -4.96875 C 12.195312 -4.132812 13.84375 -3.71875 15.6875 -3.71875 C 17.363281 -3.71875 18.84375 -4.078125 20.125 -4.796875 C 21.40625 -5.515625 22.40625 -6.609375 23.125 -8.078125 L 28.59375 -8.078125 C 27.5625 -5.410156 25.890625 -3.359375 23.578125 -1.921875 C 21.273438 -0.484375 18.644531 0.234375 15.6875 0.234375 C 13.070312 0.234375 10.679688 -0.367188 8.515625 -1.578125 C 6.359375 -2.796875 4.644531 -4.484375 3.375 -6.640625 C 2.113281 -8.796875 1.484375 -11.234375 1.484375 -13.953125 Z M 1.484375 -13.953125 "/></g></g></g><g fill="#ffffff" fill-opacity="1"><g transform="translate(55.855305, 189.381549)"><g><path d="M 12.5625 0.359375 C 10.476562 0.359375 8.597656 -0.113281 6.921875 -1.0625 C 5.242188 -2.007812 3.921875 -3.34375 2.953125 -5.0625 C 1.992188 -6.78125 1.515625 -8.773438 1.515625 -11.046875 C 1.515625 -13.285156 2.007812 -15.269531 3 -17 C 3.988281 -18.726562 5.332031 -20.0625 7.03125 -21 C 8.738281 -21.9375 10.648438 -22.40625 12.765625 -22.40625 C 14.867188 -22.40625 16.773438 -21.9375 18.484375 -21 C 20.191406 -20.0625 21.535156 -18.726562 22.515625 -17 C 23.503906 -15.269531 24 -13.285156 24 -11.046875 C 24 -8.804688 23.488281 -6.816406 22.46875 -5.078125 C 21.457031 -3.347656 20.078125 -2.007812 18.328125 -1.0625 C 16.585938 -0.113281 14.664062 0.359375 12.5625 0.359375 Z M 12.5625 -3.59375 C 13.726562 -3.59375 14.828125 -3.875 15.859375 -4.4375 C 16.890625 -5 17.722656 -5.835938 18.359375 -6.953125 C 18.992188 -8.078125 19.3125 -9.441406 19.3125 -11.046875 C 19.3125 -12.640625 19.003906 -13.988281 18.390625 -15.09375 C 17.785156 -16.207031 16.972656 -17.039062 15.953125 -17.59375 C 14.941406 -18.15625 13.851562 -18.4375 12.6875 -18.4375 C 11.507812 -18.4375 10.421875 -18.15625 9.421875 -17.59375 C 8.421875 -17.039062 7.625 -16.207031 7.03125 -15.09375 C 6.445312 -13.988281 6.15625 -12.640625 6.15625 -11.046875 C 6.15625 -8.671875 6.757812 -6.832031 7.96875 -5.53125 C 9.1875 -4.238281 10.71875 -3.59375 12.5625 -3.59375 Z M 12.5625 -3.59375 "/></g></g></g><g fill="#ffffff" fill-opacity="1"><g transform="translate(81.372767, 189.381549)"><g><path d="M 1.484375 -11.125 C 1.484375 -13.332031 1.941406 -15.289062 2.859375 -17 C 3.773438 -18.707031 5.023438 -20.035156 6.609375 -20.984375 C 8.203125 -21.929688 9.972656 -22.40625 11.921875 -22.40625 C 13.359375 -22.40625 14.773438 -22.085938 16.171875 -21.453125 C 17.578125 -20.828125 18.691406 -19.992188 19.515625 -18.953125 L 19.515625 -29.59375 L 24.125 -29.59375 L 24.125 0 L 19.515625 0 L 19.515625 -3.3125 C 18.773438 -2.25 17.742188 -1.367188 16.421875 -0.671875 C 15.097656 0.015625 13.582031 0.359375 11.875 0.359375 C 9.957031 0.359375 8.203125 -0.125 6.609375 -1.09375 C 5.023438 -2.070312 3.773438 -3.429688 2.859375 -5.171875 C 1.941406 -6.921875 1.484375 -8.90625 1.484375 -11.125 Z M 19.515625 -11.046875 C 19.515625 -12.554688 19.203125 -13.875 18.578125 -15 C 17.953125 -16.125 17.128906 -16.976562 16.109375 -17.5625 C 15.097656 -18.144531 14.007812 -18.4375 12.84375 -18.4375 C 11.664062 -18.4375 10.570312 -18.148438 9.5625 -17.578125 C 8.550781 -17.003906 7.726562 -16.164062 7.09375 -15.0625 C 6.46875 -13.957031 6.15625 -12.644531 6.15625 -11.125 C 6.15625 -9.601562 6.46875 -8.269531 7.09375 -7.125 C 7.726562 -5.976562 8.554688 -5.101562 9.578125 -4.5 C 10.609375 -3.894531 11.695312 -3.59375 12.84375 -3.59375 C 14.007812 -3.59375 15.097656 -3.882812 16.109375 -4.46875 C 17.128906 -5.0625 17.953125 -5.925781 18.578125 -7.0625 C 19.203125 -8.195312 19.515625 -9.523438 19.515625 -11.046875 Z M 19.515625 -11.046875 "/></g></g></g><g fill="#ffffff" fill-opacity="1"><g transform="translate(108.490067, 189.381549)"><g><path d="M 23.203125 -11.5625 C 23.203125 -10.726562 23.148438 -9.976562 23.046875 -9.3125 L 6.203125 -9.3125 C 6.335938 -7.5625 6.988281 -6.148438 8.15625 -5.078125 C 9.332031 -4.015625 10.773438 -3.484375 12.484375 -3.484375 C 14.929688 -3.484375 16.664062 -4.507812 17.6875 -6.5625 L 22.59375 -6.5625 C 21.925781 -4.53125 20.71875 -2.867188 18.96875 -1.578125 C 17.226562 -0.285156 15.066406 0.359375 12.484375 0.359375 C 10.367188 0.359375 8.476562 -0.113281 6.8125 -1.0625 C 5.144531 -2.007812 3.835938 -3.34375 2.890625 -5.0625 C 1.953125 -6.78125 1.484375 -8.773438 1.484375 -11.046875 C 1.484375 -13.304688 1.941406 -15.296875 2.859375 -17.015625 C 3.773438 -18.734375 5.066406 -20.0625 6.734375 -21 C 8.398438 -21.9375 10.316406 -22.40625 12.484375 -22.40625 C 14.554688 -22.40625 16.40625 -21.953125 18.03125 -21.046875 C 19.664062 -20.140625 20.9375 -18.863281 21.84375 -17.21875 C 22.75 -15.582031 23.203125 -13.695312 23.203125 -11.5625 Z M 18.4375 -13 C 18.414062 -14.675781 17.816406 -16.019531 16.640625 -17.03125 C 15.460938 -18.050781 14.007812 -18.5625 12.28125 -18.5625 C 10.707031 -18.5625 9.359375 -18.0625 8.234375 -17.0625 C 7.117188 -16.0625 6.453125 -14.707031 6.234375 -13 Z M 18.4375 -13 "/></g></g></g><g fill="#ffffff" fill-opacity="1"><g transform="translate(133.167613, 189.381549)"><g><path d="M 12.15625 0.28125 C 10.289062 0.28125 8.609375 -0.046875 7.109375 -0.703125 C 5.617188 -1.359375 4.445312 -2.285156 3.59375 -3.484375 C 2.738281 -4.679688 2.3125 -6.082031 2.3125 -7.6875 L 7.203125 -7.6875 C 7.304688 -6.476562 7.773438 -5.488281 8.609375 -4.71875 C 9.453125 -3.945312 10.632812 -3.5625 12.15625 -3.5625 C 13.726562 -3.5625 14.953125 -3.941406 15.828125 -4.703125 C 16.710938 -5.460938 17.15625 -6.441406 17.15625 -7.640625 C 17.15625 -8.578125 16.878906 -9.335938 16.328125 -9.921875 C 15.785156 -10.503906 15.109375 -10.957031 14.296875 -11.28125 C 13.484375 -11.601562 12.359375 -11.945312 10.921875 -12.3125 C 9.109375 -12.800781 7.632812 -13.289062 6.5 -13.78125 C 5.363281 -14.269531 4.394531 -15.035156 3.59375 -16.078125 C 2.800781 -17.117188 2.40625 -18.503906 2.40625 -20.234375 C 2.40625 -21.835938 2.800781 -23.238281 3.59375 -24.4375 C 4.394531 -25.632812 5.515625 -26.550781 6.953125 -27.1875 C 8.398438 -27.832031 10.066406 -28.15625 11.953125 -28.15625 C 14.648438 -28.15625 16.859375 -27.484375 18.578125 -26.140625 C 20.296875 -24.796875 21.25 -22.945312 21.4375 -20.59375 L 16.40625 -20.59375 C 16.320312 -21.613281 15.835938 -22.484375 14.953125 -23.203125 C 14.078125 -23.921875 12.921875 -24.28125 11.484375 -24.28125 C 10.171875 -24.28125 9.101562 -23.945312 8.28125 -23.28125 C 7.457031 -22.613281 7.046875 -21.65625 7.046875 -20.40625 C 7.046875 -19.550781 7.300781 -18.847656 7.8125 -18.296875 C 8.332031 -17.753906 8.992188 -17.320312 9.796875 -17 C 10.597656 -16.675781 11.691406 -16.328125 13.078125 -15.953125 C 14.921875 -15.453125 16.421875 -14.945312 17.578125 -14.4375 C 18.734375 -13.9375 19.71875 -13.15625 20.53125 -12.09375 C 21.351562 -11.039062 21.765625 -9.632812 21.765625 -7.875 C 21.765625 -6.46875 21.382812 -5.132812 20.625 -3.875 C 19.863281 -2.625 18.753906 -1.617188 17.296875 -0.859375 C 15.847656 -0.0976562 14.132812 0.28125 12.15625 0.28125 Z M 12.15625 0.28125 "/></g></g></g><g fill="#ffffff" fill-opacity="1"><g transform="translate(157.325209, 189.381549)"><g><path d="M 12.5625 0.359375 C 10.476562 0.359375 8.597656 -0.113281 6.921875 -1.0625 C 5.242188 -2.007812 3.921875 -3.34375 2.953125 -5.0625 C 1.992188 -6.78125 1.515625 -8.773438 1.515625 -11.046875 C 1.515625 -13.285156 2.007812 -15.269531 3 -17 C 3.988281 -18.726562 5.332031 -20.0625 7.03125 -21 C 8.738281 -21.9375 10.648438 -22.40625 12.765625 -22.40625 C 14.867188 -22.40625 16.773438 -21.9375 18.484375 -21 C 20.191406 -20.0625 21.535156 -18.726562 22.515625 -17 C 23.503906 -15.269531 24 -13.285156 24 -11.046875 C 24 -8.804688 23.488281 -6.816406 22.46875 -5.078125 C 21.457031 -3.347656 20.078125 -2.007812 18.328125 -1.0625 C 16.585938 -0.113281 14.664062 0.359375 12.5625 0.359375 Z M 12.5625 -3.59375 C 13.726562 -3.59375 14.828125 -3.875 15.859375 -4.4375 C 16.890625 -5 17.722656 -5.835938 18.359375 -6.953125 C 18.992188 -8.078125 19.3125 -9.441406 19.3125 -11.046875 C 19.3125 -12.640625 19.003906 -13.988281 18.390625 -15.09375 C 17.785156 -16.207031 16.972656 -17.039062 15.953125 -17.59375 C 14.941406 -18.15625 13.851562 -18.4375 12.6875 -18.4375 C 11.507812 -18.4375 10.421875 -18.15625 9.421875 -17.59375 C 8.421875 -17.039062 7.625 -16.207031 7.03125 -15.09375 C 6.445312 -13.988281 6.15625 -12.640625 6.15625 -11.046875 C 6.15625 -8.671875 6.757812 -6.832031 7.96875 -5.53125 C 9.1875 -4.238281 10.71875 -3.59375 12.5625 -3.59375 Z M 12.5625 -3.59375 "/></g></g></g><g fill="#ffffff" fill-opacity="1"><g transform="translate(182.842671, 189.381549)"><g><path d="M 22.953125 -22.046875 L 22.953125 0 L 18.40625 0 L 18.40625 -2.59375 C 17.675781 -1.6875 16.734375 -0.972656 15.578125 -0.453125 C 14.421875 0.0546875 13.1875 0.3125 11.875 0.3125 C 10.144531 0.3125 8.59375 -0.046875 7.21875 -0.765625 C 5.84375 -1.484375 4.757812 -2.546875 3.96875 -3.953125 C 3.1875 -5.367188 2.796875 -7.078125 2.796875 -9.078125 L 2.796875 -22.046875 L 7.3125 -22.046875 L 7.3125 -9.765625 C 7.3125 -7.785156 7.804688 -6.269531 8.796875 -5.21875 C 9.785156 -4.164062 11.132812 -3.640625 12.84375 -3.640625 C 14.550781 -3.640625 15.90625 -4.164062 16.90625 -5.21875 C 17.90625 -6.269531 18.40625 -7.785156 18.40625 -9.765625 L 18.40625 -22.046875 Z M 22.953125 -22.046875 "/></g></g></g><g fill="#ffffff" fill-opacity="1"><g transform="translate(208.800089, 189.381549)"><g><path d="M 7.5625 -29.59375 L 7.5625 0 L 3 0 L 3 -29.59375 Z M 7.5625 -29.59375 "/></g></g></g></svg>